<svg width="283" height="361" viewBox="0 0 283 361" fill="none" xmlns="http://www.w3.org/2000/svg">
<g filter="url(#filter0_d_1_10)">
<path d="M159 0H273C278.523 0 283 4.47715 283 10V286.843C283 290.353 281.16 293.606 278.152 295.414L185.235 351.262C179.115 354.941 171.222 351.204 170.189 344.138L160.318 276.637C160.104 275.169 160.218 273.673 160.654 272.255L195.039 160.243L220.019 62.6854C221.638 56.3603 216.86 50.205 210.331 50.205H195.039H14C8.47714 50.205 4 45.7278 4 40.205V10C4 4.47716 8.47715 0 14 0H159Z" fill="#030D27"/>
</g>
<defs>
<filter id="filter0_d_1_10" x="0" y="0" width="287" height="360.701" filterUnits="userSpaceOnUse" color-interpolation-filters="sRGB">
<feFlood flood-opacity="0" result="BackgroundImageFix"/>
<feColorMatrix in="SourceAlpha" type="matrix" values="0 0 0 0 0 0 0 0 0 0 0 0 0 0 0 0 0 0 127 0" result="hardAlpha"/>
<feOffset dy="4"/>
<feGaussianBlur stdDeviation="2"/>
<feComposite in2="hardAlpha" operator="out"/>
<feColorMatrix type="matrix" values="0 0 0 0 0 0 0 0 0 0 0 0 0 0 0 0 0 0 0.25 0"/>
<feBlend mode="normal" in2="BackgroundImageFix" result="effect1_dropShadow_1_10"/>
<feBlend mode="normal" in="SourceGraphic" in2="effect1_dropShadow_1_10" result="shape"/>
</filter>
</defs>
</svg>
