<svg width="63" height="10" viewBox="0 0 63 10" fill="none" xmlns="http://www.w3.org/2000/svg">
<path d="M0.660511 9V0.272727H4.26562C4.91903 0.272727 5.48295 0.390625 5.95739 0.62642C6.43466 0.859375 6.80256 1.1946 7.06108 1.6321C7.3196 2.06676 7.44886 2.58239 7.44886 3.17898C7.44886 3.78409 7.31676 4.2983 7.05256 4.72159C6.78835 5.14205 6.41335 5.46307 5.92756 5.68466C5.44176 5.90341 4.86648 6.01278 4.2017 6.01278H1.92188V4.35085H3.80966C4.12784 4.35085 4.39347 4.30966 4.60653 4.22727C4.82244 4.14205 4.9858 4.0142 5.09659 3.84375C5.20739 3.67045 5.26278 3.44886 5.26278 3.17898C5.26278 2.90909 5.20739 2.68608 5.09659 2.50994C4.9858 2.33097 4.82244 2.19744 4.60653 2.10938C4.39063 2.01847 4.125 1.97301 3.80966 1.97301H2.76989V9H0.660511ZM5.57386 5.01136L7.74716 9H5.44602L3.31534 5.01136H5.57386ZM11.5366 9.12358C10.8519 9.12358 10.261 8.98864 9.76385 8.71875C9.26953 8.44602 8.88885 8.05824 8.6218 7.5554C8.3576 7.04972 8.2255 6.44886 8.2255 5.75284C8.2255 5.0767 8.35902 4.4858 8.62607 3.98011C8.89311 3.47159 9.26953 3.0767 9.75533 2.79545C10.2411 2.51136 10.8136 2.36932 11.4727 2.36932C11.9386 2.36932 12.3647 2.44176 12.7511 2.58665C13.1374 2.73153 13.4712 2.94602 13.7525 3.23011C14.0337 3.5142 14.2525 3.86506 14.4087 4.28267C14.565 4.69744 14.6431 5.1733 14.6431 5.71023V6.23011H8.95419V5.01989H12.7042C12.7013 4.7983 12.6488 4.60085 12.5465 4.42756C12.4442 4.25426 12.3036 4.11932 12.1246 4.02273C11.9485 3.9233 11.7454 3.87358 11.5153 3.87358C11.2823 3.87358 11.0735 3.92614 10.8888 4.03125C10.7042 4.13352 10.5579 4.27415 10.4499 4.45312C10.342 4.62926 10.2852 4.82955 10.2795 5.05398V6.28551C10.2795 6.55256 10.332 6.78693 10.4371 6.98864C10.5423 7.1875 10.6914 7.34233 10.8846 7.45312C11.0778 7.56392 11.3079 7.61932 11.5749 7.61932C11.7596 7.61932 11.9272 7.59375 12.0778 7.54261C12.2283 7.49148 12.3576 7.41619 12.4656 7.31676C12.5735 7.21733 12.6545 7.09517 12.7085 6.95028L14.6218 7.00568C14.5423 7.43466 14.3675 7.80824 14.0977 8.12642C13.8306 8.44176 13.4798 8.6875 13.0451 8.86364C12.6104 9.03693 12.1076 9.12358 11.5366 9.12358ZM17.5526 9.1108C17.1349 9.1108 16.7642 9.04119 16.4403 8.90199C16.1193 8.75994 15.8651 8.54687 15.6776 8.26278C15.4929 7.97585 15.4006 7.61648 15.4006 7.18466C15.4006 6.82102 15.4645 6.5142 15.5923 6.2642C15.7202 6.0142 15.8963 5.81108 16.1207 5.65483C16.3452 5.49858 16.6037 5.38068 16.8963 5.30114C17.1889 5.21875 17.5014 5.16335 17.8338 5.13494C18.206 5.10085 18.5057 5.06534 18.733 5.02841C18.9602 4.98864 19.125 4.93324 19.2273 4.86222C19.3324 4.78835 19.3849 4.68466 19.3849 4.55114V4.52983C19.3849 4.31108 19.3097 4.14205 19.1591 4.02273C19.0085 3.90341 18.8054 3.84375 18.5497 3.84375C18.2741 3.84375 18.0526 3.90341 17.8849 4.02273C17.7173 4.14205 17.6108 4.30682 17.5653 4.51705L15.6435 4.44886C15.7003 4.05114 15.8466 3.69602 16.0824 3.38352C16.321 3.06818 16.6477 2.82102 17.0625 2.64205C17.4801 2.46023 17.9815 2.36932 18.5668 2.36932C18.9844 2.36932 19.3693 2.41903 19.7216 2.51847C20.0739 2.61506 20.3807 2.7571 20.642 2.9446C20.9034 3.12926 21.1051 3.35653 21.2472 3.62642C21.392 3.89631 21.4645 4.20455 21.4645 4.55114V9H19.5043V8.08807H19.4531C19.3366 8.30966 19.1875 8.49716 19.0057 8.65057C18.8267 8.80398 18.6151 8.91903 18.3707 8.99574C18.1293 9.07244 17.8565 9.1108 17.5526 9.1108ZM18.196 7.74716C18.4205 7.74716 18.6222 7.7017 18.8011 7.6108C18.983 7.51989 19.1278 7.39489 19.2358 7.2358C19.3438 7.07386 19.3977 6.88636 19.3977 6.6733V6.05114C19.3381 6.08239 19.2656 6.1108 19.1804 6.13636C19.098 6.16193 19.0071 6.18608 18.9077 6.20881C18.8082 6.23153 18.706 6.25142 18.6009 6.26847C18.4957 6.28551 18.3949 6.30114 18.2983 6.31534C18.1023 6.34659 17.9347 6.39489 17.7955 6.46023C17.6591 6.52557 17.554 6.6108 17.4801 6.71591C17.4091 6.81818 17.3736 6.94034 17.3736 7.08239C17.3736 7.2983 17.4503 7.46307 17.6037 7.5767C17.7599 7.69034 17.9574 7.74716 18.196 7.74716ZM25.1293 9.09375C24.6463 9.09375 24.2074 8.96875 23.8125 8.71875C23.4176 8.46875 23.1023 8.09375 22.8665 7.59375C22.6307 7.09375 22.5128 6.47301 22.5128 5.73153C22.5128 4.96165 22.6349 4.32812 22.8793 3.83097C23.1236 3.33381 23.4432 2.96591 23.8381 2.72727C24.2358 2.48864 24.6634 2.36932 25.1207 2.36932C25.4645 2.36932 25.7585 2.42898 26.0028 2.5483C26.2472 2.66477 26.4489 2.81534 26.608 3C26.767 3.18466 26.8878 3.37642 26.9702 3.57528H27.0128V0.272727H29.0966V9H27.0341V7.93892H26.9702C26.8821 8.14062 26.7571 8.32955 26.5952 8.50568C26.4332 8.68182 26.2301 8.82386 25.9858 8.93182C25.7443 9.03977 25.4588 9.09375 25.1293 9.09375ZM25.8537 7.47017C26.1065 7.47017 26.3224 7.39915 26.5014 7.2571C26.6804 7.11222 26.8182 6.90909 26.9148 6.64773C27.0114 6.38636 27.0597 6.07955 27.0597 5.72727C27.0597 5.36932 27.0114 5.06108 26.9148 4.80256C26.821 4.54403 26.6832 4.34517 26.5014 4.20597C26.3224 4.06676 26.1065 3.99716 25.8537 3.99716C25.5952 3.99716 25.3764 4.06818 25.1974 4.21023C25.0185 4.35227 24.8821 4.55256 24.7884 4.81108C24.6974 5.0696 24.652 5.375 24.652 5.72727C24.652 6.07955 24.6989 6.38636 24.7926 6.64773C24.8864 6.90909 25.0213 7.11222 25.1974 7.2571C25.3764 7.39915 25.5952 7.47017 25.8537 7.47017ZM32.9925 0.272727H35.6048L37.8207 5.67614H37.9229L40.1388 0.272727H42.7511V9H40.6971V3.6392H40.6246L38.5281 8.9446H37.2156L35.119 3.60938H35.0465V9H32.9925V0.272727ZM47.1222 9.12358C46.4347 9.12358 45.8438 8.98295 45.3494 8.7017C44.858 8.41761 44.4787 8.02273 44.2116 7.51705C43.9474 7.00852 43.8153 6.41903 43.8153 5.74858C43.8153 5.07528 43.9474 4.4858 44.2116 3.98011C44.4787 3.47159 44.858 3.0767 45.3494 2.79545C45.8438 2.51136 46.4347 2.36932 47.1222 2.36932C47.8097 2.36932 48.3991 2.51136 48.8906 2.79545C49.3849 3.0767 49.7642 3.47159 50.0284 3.98011C50.2955 4.4858 50.429 5.07528 50.429 5.74858C50.429 6.41903 50.2955 7.00852 50.0284 7.51705C49.7642 8.02273 49.3849 8.41761 48.8906 8.7017C48.3991 8.98295 47.8097 9.12358 47.1222 9.12358ZM47.1349 7.55114C47.3849 7.55114 47.5966 7.47443 47.7699 7.32102C47.9432 7.16761 48.0753 6.95455 48.1662 6.68182C48.2599 6.40909 48.3068 6.09375 48.3068 5.7358C48.3068 5.37216 48.2599 5.05398 48.1662 4.78125C48.0753 4.50852 47.9432 4.29545 47.7699 4.14205C47.5966 3.98864 47.3849 3.91193 47.1349 3.91193C46.8764 3.91193 46.6577 3.98864 46.4787 4.14205C46.3026 4.29545 46.1676 4.50852 46.0739 4.78125C45.983 5.05398 45.9375 5.37216 45.9375 5.7358C45.9375 6.09375 45.983 6.40909 46.0739 6.68182C46.1676 6.95455 46.3026 7.16761 46.4787 7.32102C46.6577 7.47443 46.8764 7.55114 47.1349 7.55114ZM51.4964 9V2.45455H53.5206V3.64773H53.5888C53.7081 3.21591 53.9027 2.89489 54.1726 2.68466C54.4425 2.47159 54.7564 2.36506 55.1143 2.36506C55.2109 2.36506 55.3104 2.37216 55.4126 2.38636C55.5149 2.39773 55.6101 2.41619 55.6982 2.44176V4.25284C55.5987 4.21875 55.468 4.19176 55.3061 4.17188C55.147 4.15199 55.005 4.14205 54.88 4.14205C54.6328 4.14205 54.4098 4.19744 54.2109 4.30824C54.0149 4.41619 53.8601 4.56818 53.7464 4.7642C53.6357 4.95739 53.5803 5.18466 53.5803 5.44602V9H51.4964ZM59.267 9.12358C58.5824 9.12358 57.9915 8.98864 57.4943 8.71875C57 8.44602 56.6193 8.05824 56.3523 7.5554C56.0881 7.04972 55.956 6.44886 55.956 5.75284C55.956 5.0767 56.0895 4.4858 56.3565 3.98011C56.6236 3.47159 57 3.0767 57.4858 2.79545C57.9716 2.51136 58.544 2.36932 59.2031 2.36932C59.669 2.36932 60.0952 2.44176 60.4815 2.58665C60.8679 2.73153 61.2017 2.94602 61.483 3.23011C61.7642 3.5142 61.983 3.86506 62.1392 4.28267C62.2955 4.69744 62.3736 5.1733 62.3736 5.71023V6.23011H56.6847V5.01989H60.4347C60.4318 4.7983 60.3793 4.60085 60.277 4.42756C60.1747 4.25426 60.0341 4.11932 59.8551 4.02273C59.679 3.9233 59.4759 3.87358 59.2457 3.87358C59.0128 3.87358 58.804 3.92614 58.6193 4.03125C58.4347 4.13352 58.2884 4.27415 58.1804 4.45312C58.0724 4.62926 58.0156 4.82955 58.0099 5.05398V6.28551C58.0099 6.55256 58.0625 6.78693 58.1676 6.98864C58.2727 7.1875 58.4219 7.34233 58.6151 7.45312C58.8082 7.56392 59.0384 7.61932 59.3054 7.61932C59.4901 7.61932 59.6577 7.59375 59.8082 7.54261C59.9588 7.49148 60.0881 7.41619 60.196 7.31676C60.304 7.21733 60.3849 7.09517 60.4389 6.95028L62.3523 7.00568C62.2727 7.43466 62.098 7.80824 61.8281 8.12642C61.5611 8.44176 61.2102 8.6875 60.7756 8.86364C60.3409 9.03693 59.8381 9.12358 59.267 9.12358Z" fill="white"/>
</svg>
