<svg width="62" height="15" viewBox="0 0 62 15" fill="none" xmlns="http://www.w3.org/2000/svg">
<path d="M0.589844 14.0781C0.53776 14.026 0.511719 13.9154 0.511719 13.7461C0.511719 13.4857 0.53776 13.3555 0.589844 13.3555C0.69401 13.3555 0.84375 13.3359 1.03906 13.2969C1.23438 13.2578 1.41667 13.2057 1.58594 13.1406C1.75521 13.0625 1.85286 12.9909 1.87891 12.9258C1.95703 12.6263 1.99609 12.0534 1.99609 11.207V3.82422C1.99609 3.09505 1.95703 2.58724 1.87891 2.30078C1.85286 2.22266 1.7487 2.14453 1.56641 2.06641C1.39714 1.97526 1.21484 1.90365 1.01953 1.85156C0.824219 1.78646 0.674479 1.75391 0.570312 1.75391C0.518229 1.75391 0.492188 1.63672 0.492188 1.40234C0.492188 1.19401 0.511719 1.07031 0.550781 1.03125C1.07161 1.05729 1.56641 1.08333 2.03516 1.10938C2.51693 1.1224 2.97917 1.12891 3.42188 1.12891L6.37109 1.08984C6.85286 1.08984 7.34115 1.15495 7.83594 1.28516C8.33073 1.40234 8.8125 1.59115 9.28125 1.85156C9.73698 2.11198 10.1081 2.47656 10.3945 2.94531C10.681 3.41406 10.8242 3.95443 10.8242 4.56641C10.8242 5.00911 10.7266 5.40625 10.5312 5.75781C10.349 6.10938 10.1341 6.40234 9.88672 6.63672C9.63932 6.85807 9.41146 7.00781 9.20312 7.08594C9.09896 7.125 9.06641 7.16406 9.10547 7.20312C9.41797 7.25521 9.73698 7.41797 10.0625 7.69141C10.401 7.96484 10.6875 8.32943 10.9219 8.78516C11.1562 9.22786 11.2734 9.7487 11.2734 10.3477C11.2734 11.0898 11.0651 11.7409 10.6484 12.3008C10.2318 12.8607 9.65234 13.2904 8.91016 13.5898C8.16797 13.8763 7.30208 14.013 6.3125 14L3.44141 13.9609C3.05078 13.9609 2.61458 13.974 2.13281 14C1.66406 14.013 1.28646 14.026 1 14.0391L0.589844 14.0781ZM5.74609 6.75391C6.25391 6.75391 6.625 6.69531 6.85938 6.57812C7.06771 6.47396 7.21745 6.3763 7.30859 6.28516C7.41276 6.19401 7.52344 6.00521 7.64062 5.71875C7.77083 5.41927 7.83594 5.04167 7.83594 4.58594C7.83594 2.97135 7.23698 2.16406 6.03906 2.16406C5.4401 2.16406 5.0625 2.1901 4.90625 2.24219C4.78906 2.25521 4.73047 2.33333 4.73047 2.47656V6.48047C4.73047 6.66276 5.06901 6.75391 5.74609 6.75391ZM6.33203 12.9258C7.67318 12.9258 8.34375 12.138 8.34375 10.5625C8.34375 8.7526 7.54297 7.84766 5.94141 7.84766C5.53776 7.84766 5.20573 7.88021 4.94531 7.94531C4.80208 8.01042 4.73047 8.06901 4.73047 8.12109V12.5156C4.73047 12.6458 4.77604 12.737 4.86719 12.7891C4.9974 12.8802 5.48568 12.9258 6.33203 12.9258ZM16.8984 14.1367C16.0521 14.1367 15.2773 13.9414 14.5742 13.5508C13.8841 13.1471 13.3307 12.6133 12.9141 11.9492C12.5104 11.2721 12.3086 10.5234 12.3086 9.70312C12.3086 8.86979 12.5104 8.12109 12.9141 7.45703C13.3307 6.79297 13.8841 6.26562 14.5742 5.875C15.2773 5.47135 16.0521 5.26953 16.8984 5.26953C17.7578 5.26953 18.5326 5.47135 19.2227 5.875C19.9128 6.26562 20.4596 6.79297 20.8633 7.45703C21.2799 8.12109 21.4883 8.86979 21.4883 9.70312C21.4883 10.5234 21.2865 11.2721 20.8828 11.9492C20.4792 12.6133 19.9258 13.1471 19.2227 13.5508C18.5326 13.9414 17.7578 14.1367 16.8984 14.1367ZM17.0938 13.0625C17.4583 13.0625 17.7578 12.9388 17.9922 12.6914C18.2266 12.444 18.3958 12.1185 18.5 11.7148C18.6172 11.2982 18.6758 10.8555 18.6758 10.3867C18.6758 7.69141 17.9922 6.34375 16.625 6.34375C16.2604 6.34375 15.9609 6.47396 15.7266 6.73438C15.5052 6.99479 15.3424 7.33333 15.2383 7.75C15.1341 8.16667 15.082 8.61589 15.082 9.09766C15.082 11.7409 15.7526 13.0625 17.0938 13.0625ZM27.1133 14.1367C26.2669 14.1367 25.4922 13.9414 24.7891 13.5508C24.099 13.1471 23.5456 12.6133 23.1289 11.9492C22.7253 11.2721 22.5234 10.5234 22.5234 9.70312C22.5234 8.86979 22.7253 8.12109 23.1289 7.45703C23.5456 6.79297 24.099 6.26562 24.7891 5.875C25.4922 5.47135 26.2669 5.26953 27.1133 5.26953C27.9727 5.26953 28.7474 5.47135 29.4375 5.875C30.1276 6.26562 30.6745 6.79297 31.0781 7.45703C31.4948 8.12109 31.7031 8.86979 31.7031 9.70312C31.7031 10.5234 31.5013 11.2721 31.0977 11.9492C30.694 12.6133 30.1406 13.1471 29.4375 13.5508C28.7474 13.9414 27.9727 14.1367 27.1133 14.1367ZM27.3086 13.0625C27.6732 13.0625 27.9727 12.9388 28.207 12.6914C28.4414 12.444 28.6107 12.1185 28.7148 11.7148C28.832 11.2982 28.8906 10.8555 28.8906 10.3867C28.8906 7.69141 28.207 6.34375 26.8398 6.34375C26.4753 6.34375 26.1758 6.47396 25.9414 6.73438C25.7201 6.99479 25.5573 7.33333 25.4531 7.75C25.349 8.16667 25.2969 8.61589 25.2969 9.09766C25.2969 11.7409 25.9674 13.0625 27.3086 13.0625ZM36.5664 14.1367C35.8503 14.1367 35.2318 13.9154 34.7109 13.4727C34.2031 13.0169 33.9492 12.2878 33.9492 11.2852V6.77344H32.6797C32.5755 6.77344 32.5234 6.57161 32.5234 6.16797C32.5234 6.07682 32.5365 6.00521 32.5625 5.95312C32.9271 5.77083 33.2526 5.59505 33.5391 5.42578C33.8385 5.24349 34.099 5.06771 34.3203 4.89844C34.8932 4.44271 35.3099 4.09766 35.5703 3.86328C35.8307 3.62891 35.9674 3.50521 35.9805 3.49219C36.0846 3.49219 36.1953 3.51823 36.3125 3.57031C36.4297 3.60938 36.4883 3.65495 36.4883 3.70703V5.62109H38.5977C38.7018 5.62109 38.7539 5.6862 38.7539 5.81641C38.7539 6.20703 38.6888 6.52604 38.5586 6.77344H36.4883V11.4023C36.4883 12.3919 36.8398 12.8867 37.543 12.8867C37.9076 12.8867 38.1615 12.8411 38.3047 12.75C38.4609 12.6458 38.5651 12.5938 38.6172 12.5938C38.6693 12.5938 38.7214 12.6589 38.7734 12.7891C38.8385 12.9193 38.8711 13.0169 38.8711 13.082C38.8711 13.1862 38.7409 13.3229 38.4805 13.4922C38.2331 13.6615 37.9271 13.8112 37.5625 13.9414C37.2109 14.0716 36.8789 14.1367 36.5664 14.1367ZM39.9453 14.0781C39.8932 14.026 39.8672 13.8893 39.8672 13.668C39.8672 13.4596 39.8932 13.3555 39.9453 13.3555C40.0495 13.3555 40.1992 13.3294 40.3945 13.2773C40.5898 13.2122 40.7721 13.1406 40.9414 13.0625C41.1107 12.9844 41.2018 12.9193 41.2148 12.8672C41.306 12.5026 41.3516 12.0078 41.3516 11.3828V3.62891C41.3516 3.32943 41.3385 3.0625 41.3125 2.82812C41.2995 2.59375 41.2799 2.39193 41.2539 2.22266C41.2018 2.01432 40.8633 1.91016 40.2383 1.91016H40.0625C39.9844 1.91016 39.9453 1.77995 39.9453 1.51953C39.9453 1.29818 39.9844 1.1875 40.0625 1.1875C40.8177 1.1224 41.5273 1.01172 42.1914 0.855469C42.8685 0.699219 43.3503 0.575521 43.6367 0.484375L43.832 0.425781H43.8711C43.9232 0.425781 43.9753 0.464844 44.0273 0.542969C44.0794 0.621094 44.112 0.692708 44.125 0.757812C43.9818 1.36979 43.9102 2.02734 43.9102 2.73047L43.8906 11.0898C43.8906 11.9492 43.9362 12.5417 44.0273 12.8672C44.0534 12.9193 44.151 12.9844 44.3203 13.0625C44.4896 13.1406 44.6654 13.2122 44.8477 13.2773C45.043 13.3294 45.1797 13.3555 45.2578 13.3555C45.2839 13.3555 45.3034 13.4076 45.3164 13.5117C45.3294 13.6159 45.3359 13.7266 45.3359 13.8438C45.3359 13.9609 45.3229 14.0391 45.2969 14.0781C45.2188 14.0781 45.069 14.0651 44.8477 14.0391C44.6263 14.026 44.3659 14.013 44.0664 14C43.7799 13.974 43.5065 13.9544 43.2461 13.9414C42.9857 13.9284 42.7773 13.9219 42.6211 13.9219C42.4648 13.9219 42.25 13.9284 41.9766 13.9414C41.7161 13.9544 41.4427 13.974 41.1562 14C40.8698 14.013 40.6159 14.026 40.3945 14.0391C40.1732 14.0651 40.0234 14.0781 39.9453 14.0781ZM50.5703 14.1367C49.776 14.1367 49.0404 13.9349 48.3633 13.5312C47.6992 13.1276 47.1654 12.5872 46.7617 11.9102C46.3711 11.2331 46.1758 10.4909 46.1758 9.68359C46.1758 8.85026 46.3516 8.10156 46.7031 7.4375C47.0677 6.77344 47.569 6.24609 48.207 5.85547C48.8451 5.46484 49.5807 5.26953 50.4141 5.26953C51.2344 5.26953 51.931 5.46484 52.5039 5.85547C53.0898 6.23307 53.5326 6.70833 53.832 7.28125C54.1445 7.84115 54.3008 8.40755 54.3008 8.98047C54.3008 9.27995 54.2357 9.47526 54.1055 9.56641C53.9883 9.65755 53.7474 9.70312 53.3828 9.70312H48.9688C48.8906 9.70312 48.8516 9.7487 48.8516 9.83984C48.8516 10.3086 48.9362 10.7513 49.1055 11.168C49.2878 11.5846 49.5482 11.9232 49.8867 12.1836C50.2383 12.444 50.6615 12.5742 51.1562 12.5742C51.599 12.5742 52.0091 12.5091 52.3867 12.3789C52.6471 12.3008 52.849 12.2292 52.9922 12.1641C53.1354 12.099 53.2656 12.0273 53.3828 11.9492C53.513 11.8581 53.6628 11.7474 53.832 11.6172C53.9492 11.6693 54.0078 11.793 54.0078 11.9883C54.0078 12.1576 53.9818 12.2878 53.9297 12.3789C53.8516 12.5872 53.6432 12.8281 53.3047 13.1016C52.9792 13.375 52.5755 13.6159 52.0938 13.8242C51.625 14.0326 51.1172 14.1367 50.5703 14.1367ZM48.9883 8.62891H51.4688C51.651 8.62891 51.7422 8.50521 51.7422 8.25781C51.7422 7.76302 51.6055 7.32031 51.332 6.92969C51.0716 6.53906 50.7331 6.34375 50.3164 6.34375C49.9388 6.34375 49.6393 6.48047 49.418 6.75391C49.2096 7.01432 49.0599 7.30729 48.9688 7.63281C48.8906 7.95833 48.8516 8.22526 48.8516 8.43359C48.8516 8.5638 48.8971 8.62891 48.9883 8.62891ZM59.2227 14.1367C58.5065 14.1367 57.888 13.9154 57.3672 13.4727C56.8594 13.0169 56.6055 12.2878 56.6055 11.2852V6.77344H55.3359C55.2318 6.77344 55.1797 6.57161 55.1797 6.16797C55.1797 6.07682 55.1927 6.00521 55.2188 5.95312C55.5833 5.77083 55.9089 5.59505 56.1953 5.42578C56.4948 5.24349 56.7552 5.06771 56.9766 4.89844C57.5495 4.44271 57.9661 4.09766 58.2266 3.86328C58.487 3.62891 58.6237 3.50521 58.6367 3.49219C58.7409 3.49219 58.8516 3.51823 58.9688 3.57031C59.0859 3.60938 59.1445 3.65495 59.1445 3.70703V5.62109H61.2539C61.3581 5.62109 61.4102 5.6862 61.4102 5.81641C61.4102 6.20703 61.3451 6.52604 61.2148 6.77344H59.1445V11.4023C59.1445 12.3919 59.4961 12.8867 60.1992 12.8867C60.5638 12.8867 60.8177 12.8411 60.9609 12.75C61.1172 12.6458 61.2214 12.5938 61.2734 12.5938C61.3255 12.5938 61.3776 12.6589 61.4297 12.7891C61.4948 12.9193 61.5273 13.0169 61.5273 13.082C61.5273 13.1862 61.3971 13.3229 61.1367 13.4922C60.8893 13.6615 60.5833 13.8112 60.2188 13.9414C59.8672 14.0716 59.5352 14.1367 59.2227 14.1367Z" fill="black"/>
</svg>
