<?xml version="1.0" encoding="UTF-8"?>
<svg xmlns="http://www.w3.org/2000/svg" xmlns:xlink="http://www.w3.org/1999/xlink" width="70px" height="70px" viewBox="0 0 70 70" version="1.1">
<g id="surface1">
<path style=" stroke:none;fill-rule:nonzero;fill:rgb(25.490196%,64.313725%,76.470588%);fill-opacity:1;" d="M 10.859375 20.070312 C 10.789062 20.082031 10.71875 20.121094 10.660156 20.167969 C 5.128906 25.703125 -0.0390625 32.945312 -0.0390625 38.996094 C -0.0390625 45.03125 4.871094 49.929688 10.894531 49.929688 C 16.929688 49.929688 21.839844 45.03125 21.839844 38.996094 C 21.839844 32.945312 16.675781 25.703125 11.144531 20.167969 C 11.058594 20.09375 10.953125 20.058594 10.859375 20.070312 Z M 10.894531 20.894531 C 16.273438 26.335938 21.171875 33.414062 21.171875 38.996094 C 21.171875 44.675781 16.566406 49.273438 10.894531 49.273438 C 5.222656 49.273438 0.621094 44.675781 0.621094 38.996094 C 0.621094 33.414062 5.519531 26.335938 10.894531 20.894531 Z M 16.886719 44.230469 C 16.800781 44.242188 16.730469 44.289062 16.675781 44.359375 C 15.214844 45.875 13.175781 46.816406 10.894531 46.816406 C 8.628906 46.816406 6.574219 45.875 5.109375 44.359375 C 5.035156 44.277344 4.917969 44.230469 4.8125 44.253906 C 4.578125 44.289062 4.460938 44.640625 4.636719 44.804688 C 6.222656 46.453125 8.441406 47.484375 10.894531 47.484375 C 13.363281 47.484375 15.570312 46.453125 17.15625 44.804688 C 17.261719 44.710938 17.308594 44.546875 17.238281 44.417969 C 17.179688 44.289062 17.027344 44.207031 16.886719 44.230469 Z M 16.886719 44.230469 "/>
<path style=" stroke:none;fill-rule:nonzero;fill:rgb(100%,100%,100%);fill-opacity:1;" d="M 27.347656 35.066406 L 27.347656 39.652344 L 30.121094 39.652344 C 32.527344 39.652344 33.644531 39.332031 33.644531 37.328125 C 33.644531 35.417969 32.300781 35.066406 30.246094 35.066406 Z M 27.347656 29.964844 L 27.347656 34.136719 L 30.101562 34.136719 C 32.378906 34.136719 33.117188 33.335938 33.117188 31.9375 C 33.117188 30.496094 32.253906 29.964844 29.863281 29.964844 Z M 30.96875 40.582031 L 26.253906 40.582031 L 26.253906 29.035156 L 30.425781 29.035156 C 33.136719 29.035156 34.210938 30.207031 34.210938 31.9375 C 34.210938 33.542969 33.292969 34.265625 32.363281 34.421875 L 32.363281 34.457031 C 33.953125 34.695312 34.738281 35.804688 34.738281 37.328125 C 34.738281 39.734375 33.167969 40.582031 30.96875 40.582031 Z M 40.109375 40.804688 C 37.996094 40.773438 36.261719 39.332031 36.261719 36.425781 C 36.261719 34.007812 37.546875 32.050781 40.109375 32.050781 C 42.707031 32.050781 43.957031 33.992188 43.957031 36.425781 C 43.957031 39.058594 42.433594 40.804688 40.109375 40.804688 Z M 42.933594 36.425781 C 42.917969 34.472656 42.148438 32.917969 40.109375 32.917969 C 38.089844 32.917969 37.289062 34.632812 37.289062 36.425781 C 37.289062 38.496094 38.265625 39.941406 40.109375 39.941406 C 42.132812 39.941406 42.933594 38.207031 42.933594 36.425781 Z M 48.640625 39.828125 L 48.640625 40.613281 C 48.417969 40.664062 48 40.804688 47.535156 40.804688 C 46.589844 40.804688 46.058594 40.390625 46.058594 39.152344 L 46.058594 33.078125 L 44.890625 33.078125 L 44.890625 32.273438 L 46.058594 32.273438 L 46.058594 29.964844 L 47.023438 29.964844 L 47.023438 32.273438 L 48.574219 32.273438 L 48.574219 33.078125 L 47.023438 33.078125 L 47.023438 38.769531 C 47.023438 39.589844 47.054688 39.941406 47.855469 39.941406 C 48.113281 39.941406 48.386719 39.890625 48.640625 39.828125 Z M 53.097656 39.828125 L 53.097656 40.613281 C 52.875 40.664062 52.457031 40.804688 51.996094 40.804688 C 51.046875 40.804688 50.519531 40.390625 50.519531 39.152344 L 50.519531 33.078125 L 49.347656 33.078125 L 49.347656 32.273438 L 50.519531 32.273438 L 50.519531 29.964844 L 51.480469 29.964844 L 51.480469 32.273438 L 53.035156 32.273438 L 53.035156 33.078125 L 51.480469 33.078125 L 51.480469 38.769531 C 51.480469 39.589844 51.511719 39.941406 52.3125 39.941406 C 52.570312 39.941406 52.839844 39.890625 53.097656 39.828125 Z M 55.746094 40.582031 L 54.785156 40.582031 L 54.785156 29.035156 L 55.746094 29.035156 Z M 58.792969 35.851562 L 64.214844 35.851562 C 64.214844 34.230469 63.316406 32.917969 61.582031 32.917969 C 59.882812 32.917969 58.984375 34.28125 58.792969 35.851562 Z M 65.238281 36.652344 L 58.792969 36.652344 C 58.777344 38.449219 59.738281 39.941406 61.582031 39.941406 C 62.832031 39.941406 63.8125 39.253906 64.097656 38.03125 L 65.175781 38.03125 C 64.691406 39.605469 63.699219 40.804688 61.582031 40.804688 C 58.921875 40.804688 57.765625 38.914062 57.765625 36.460938 C 57.765625 34.039062 59.210938 32.050781 61.582031 32.050781 C 63.859375 32.050781 65.253906 33.671875 65.238281 36.652344 Z M 70.03125 39.828125 L 70.03125 40.613281 C 69.808594 40.664062 69.394531 40.804688 68.929688 40.804688 C 67.980469 40.804688 67.453125 40.390625 67.453125 39.152344 L 67.453125 33.078125 L 66.28125 33.078125 L 66.28125 32.273438 L 67.453125 32.273438 L 67.453125 29.964844 L 68.414062 29.964844 L 68.414062 32.273438 L 69.96875 32.273438 L 69.96875 33.078125 L 68.414062 33.078125 L 68.414062 38.769531 C 68.414062 39.589844 68.445312 39.941406 69.246094 39.941406 C 69.503906 39.941406 69.777344 39.890625 70.03125 39.828125 Z M 70.03125 39.828125 "/>
</g>
</svg>
