<?xml version="1.0" encoding="UTF-8"?>
<svg xmlns="http://www.w3.org/2000/svg" xmlns:xlink="http://www.w3.org/1999/xlink" width="140px" height="140px" viewBox="0 0 140 140" version="1.1">
<g id="surface1">
<path style=" stroke:none;fill-rule:nonzero;fill:rgb(25.490196%,64.313725%,76.470588%);fill-opacity:1;" d="M 21.71875 40.140625 C 21.578125 40.164062 21.4375 40.242188 21.320312 40.335938 C 10.257812 51.40625 -0.078125 65.890625 -0.078125 77.992188 C -0.078125 90.0625 9.742188 99.859375 21.789062 99.859375 C 33.859375 99.859375 43.679688 90.0625 43.679688 77.992188 C 43.679688 65.890625 33.351562 51.40625 22.289062 40.335938 C 22.117188 40.1875 21.90625 40.117188 21.71875 40.140625 Z M 21.789062 41.789062 C 32.546875 52.671875 42.34375 66.828125 42.34375 77.992188 C 42.34375 89.351562 33.132812 98.546875 21.789062 98.546875 C 10.445312 98.546875 1.242188 89.351562 1.242188 77.992188 C 1.242188 66.828125 11.039062 52.671875 21.789062 41.789062 Z M 33.773438 88.460938 C 33.601562 88.484375 33.460938 88.578125 33.351562 88.71875 C 30.429688 91.75 26.351562 93.632812 21.789062 93.632812 C 17.257812 93.632812 13.148438 91.75 10.21875 88.71875 C 10.070312 88.554688 9.835938 88.460938 9.625 88.507812 C 9.15625 88.578125 8.921875 89.28125 9.273438 89.609375 C 12.445312 92.90625 16.882812 94.96875 21.789062 94.96875 C 26.726562 94.96875 31.140625 92.90625 34.3125 89.609375 C 34.523438 89.421875 34.617188 89.09375 34.476562 88.835938 C 34.359375 88.578125 34.054688 88.414062 33.773438 88.460938 Z M 33.773438 88.460938 "/>
<path style=" stroke:none;fill-rule:nonzero;fill:rgb(100%,100%,100%);fill-opacity:1;" d="M 54.695312 70.132812 L 54.695312 79.304688 L 60.242188 79.304688 C 65.054688 79.304688 67.289062 78.664062 67.289062 74.65625 C 67.289062 70.835938 64.601562 70.132812 60.492188 70.132812 Z M 54.695312 59.929688 L 54.695312 68.273438 L 60.203125 68.273438 C 64.757812 68.273438 66.234375 66.671875 66.234375 63.875 C 66.234375 60.992188 64.507812 59.929688 59.726562 59.929688 Z M 61.9375 81.164062 L 52.507812 81.164062 L 52.507812 58.070312 L 60.851562 58.070312 C 66.273438 58.070312 68.421875 60.414062 68.421875 63.875 C 68.421875 67.085938 66.585938 68.53125 64.726562 68.84375 L 64.726562 68.914062 C 67.90625 69.390625 69.476562 71.609375 69.476562 74.65625 C 69.476562 79.46875 66.335938 81.164062 61.9375 81.164062 Z M 80.21875 81.609375 C 75.992188 81.546875 72.523438 78.664062 72.523438 72.851562 C 72.523438 68.015625 75.09375 64.101562 80.21875 64.101562 C 85.414062 64.101562 87.914062 67.984375 87.914062 72.851562 C 87.914062 78.117188 84.867188 81.609375 80.21875 81.609375 Z M 85.867188 72.851562 C 85.835938 68.945312 84.296875 65.835938 80.21875 65.835938 C 76.179688 65.835938 74.578125 69.265625 74.578125 72.851562 C 74.578125 76.992188 76.53125 79.882812 80.21875 79.882812 C 84.265625 79.882812 85.867188 76.414062 85.867188 72.851562 Z M 97.28125 79.65625 L 97.28125 81.226562 C 96.835938 81.328125 96 81.609375 95.070312 81.609375 C 93.179688 81.609375 92.117188 80.78125 92.117188 78.304688 L 92.117188 66.15625 L 89.78125 66.15625 L 89.78125 64.546875 L 92.117188 64.546875 L 92.117188 59.929688 L 94.046875 59.929688 L 94.046875 64.546875 L 97.148438 64.546875 L 97.148438 66.15625 L 94.046875 66.15625 L 94.046875 77.539062 C 94.046875 79.179688 94.109375 79.882812 95.710938 79.882812 C 96.226562 79.882812 96.773438 79.78125 97.28125 79.65625 Z M 106.195312 79.65625 L 106.195312 81.226562 C 105.75 81.328125 104.914062 81.609375 103.992188 81.609375 C 102.09375 81.609375 101.039062 80.78125 101.039062 78.304688 L 101.039062 66.15625 L 98.695312 66.15625 L 98.695312 64.546875 L 101.039062 64.546875 L 101.039062 59.929688 L 102.960938 59.929688 L 102.960938 64.546875 L 106.070312 64.546875 L 106.070312 66.15625 L 102.960938 66.15625 L 102.960938 77.539062 C 102.960938 79.179688 103.023438 79.882812 104.625 79.882812 C 105.140625 79.882812 105.679688 79.78125 106.195312 79.65625 Z M 111.492188 81.164062 L 109.570312 81.164062 L 109.570312 58.070312 L 111.492188 58.070312 Z M 117.585938 71.703125 L 128.429688 71.703125 C 128.429688 68.460938 126.632812 65.835938 123.164062 65.835938 C 119.765625 65.835938 117.96875 68.5625 117.585938 71.703125 Z M 130.476562 73.304688 L 117.585938 73.304688 C 117.554688 76.898438 119.476562 79.882812 123.164062 79.882812 C 125.664062 79.882812 127.625 78.507812 128.195312 76.0625 L 130.351562 76.0625 C 129.382812 79.210938 127.398438 81.609375 123.164062 81.609375 C 117.84375 81.609375 115.53125 77.828125 115.53125 72.921875 C 115.53125 68.078125 118.421875 64.101562 123.164062 64.101562 C 127.71875 64.101562 130.507812 67.34375 130.476562 73.304688 Z M 140.0625 79.65625 L 140.0625 81.226562 C 139.617188 81.328125 138.789062 81.609375 137.859375 81.609375 C 135.960938 81.609375 134.90625 80.78125 134.90625 78.304688 L 134.90625 66.15625 L 132.5625 66.15625 L 132.5625 64.546875 L 134.90625 64.546875 L 134.90625 59.929688 L 136.828125 59.929688 L 136.828125 64.546875 L 139.9375 64.546875 L 139.9375 66.15625 L 136.828125 66.15625 L 136.828125 77.539062 C 136.828125 79.179688 136.890625 79.882812 138.492188 79.882812 C 139.007812 79.882812 139.554688 79.78125 140.0625 79.65625 Z M 140.0625 79.65625 "/>
</g>
</svg>
